<?xml version="1.0" encoding="UTF-8" standalone="no"?>
<!-- Generator: Adobe Illustrator 26.0.0, SVG Export Plug-In . SVG Version: 6.00 Build 0)  -->

<svg
   version="1.1"
   id="CMYK"
   x="0px"
   y="0px"
   viewBox="0 0 750 720"
   xml:space="preserve"
   sodipodi:docname="CMYK_color_model.svg"
   width="750"
   height="720"
   inkscape:version="1.2.2 (b0a8486541, 2022-12-01)"
   xmlns:inkscape="http://www.inkscape.org/namespaces/inkscape"
   xmlns:sodipodi="http://sodipodi.sourceforge.net/DTD/sodipodi-0.dtd"
   xmlns="http://www.w3.org/2000/svg"
   xmlns:svg="http://www.w3.org/2000/svg"><defs
   id="defs25" /><sodipodi:namedview
   id="namedview23"
   pagecolor="#ffffff"
   bordercolor="#000000"
   borderopacity="0.25"
   inkscape:showpageshadow="2"
   inkscape:pageopacity="0.0"
   inkscape:pagecheckerboard="0"
   inkscape:deskcolor="#d1d1d1"
   showgrid="false"
   inkscape:zoom="0.71006711"
   inkscape:cx="372.5"
   inkscape:cy="370.38752"
   inkscape:window-width="1366"
   inkscape:window-height="703"
   inkscape:window-x="0"
   inkscape:window-y="36"
   inkscape:window-maximized="1"
   inkscape:current-layer="CMYK" />
<style
   type="text/css"
   id="style2">
	.st0{fill:#EC008C;}
	.st1{fill:#00AEEF;}
	.st2{fill:#2E3192;}
	.st3{fill:#FFF200;}
	.st4{fill:#ED1C24;}
	.st5{fill:#00A651;}
	.st6{display:none;}
	.st7{display:inline;}
</style>
<g
   id="slices"
   transform="translate(-124.8,-139.60291)">
	<path
   class="st0"
   d="m 128.8,607.2 c 0,136.7 110.8,247.5 247.5,247.5 45.1,0 87.3,-12.1 123.7,-33.1 -74,-42.8 -123.7,-122.8 -123.7,-214.4 0,0 0,0 0,0 C 302.3,564.4 252.6,484.4 252.6,392.8 178.5,435.6 128.8,515.6 128.8,607.2 Z"
   id="path4" />
	<path
   class="st1"
   d="m 623.7,607.2 c 0,0 0,0 0,0 0,91.6 -49.8,171.6 -123.7,214.4 36.4,21.1 78.7,33.1 123.7,33.1 136.7,0 247.5,-110.8 247.5,-247.5 0,-91.6 -49.8,-171.6 -123.7,-214.4 0,91.6 -49.8,171.6 -123.8,214.4 z"
   id="path6" />
	<path
   class="st2"
   d="m 623.7,607.2 c 0,0 0,0 0,0 -36.4,21.1 -78.7,33.1 -123.7,33.1 -45,0 -87.3,-12.1 -123.7,-33.1 0,0 0,0 0,0 0,91.6 49.8,171.6 123.7,214.4 74,-42.8 123.7,-122.8 123.7,-214.4 z"
   id="path8" />
	<path
   class="st3"
   d="m 500,392.8 c 36.4,-21.1 78.7,-33.1 123.7,-33.1 45,0 87.3,12.1 123.7,33.1 0,0 0,0 0,0 0,-136.7 -110.8,-247.5 -247.5,-247.5 -136.7,0 -247.4,110.8 -247.4,247.5 0,0 0,0 0,0 36.4,-21.1 78.7,-33.1 123.7,-33.1 45,0 87.4,12.1 123.8,33.1 z"
   id="path10" />
	<path
   class="st4"
   d="m 376.3,607.2 c 0,-91.6 49.8,-171.6 123.7,-214.4 -36.4,-21.1 -78.7,-33.1 -123.7,-33.1 -45,0 -87.3,12.1 -123.7,33.1 -0.1,91.6 49.7,171.6 123.7,214.4 z"
   id="path12" />
	<path
   class="st5"
   d="m 500,392.8 c 74,42.8 123.7,122.8 123.7,214.4 74,-42.8 123.7,-122.8 123.7,-214.4 -36.4,-21.1 -78.7,-33.1 -123.7,-33.1 -45,0 -87.3,12.1 -123.7,33.1 z"
   id="path14" />
	<path
   d="m 623.7,607.2 c 0,-91.6 -49.8,-171.6 -123.7,-214.4 -74,42.8 -123.7,122.8 -123.7,214.4 36.4,21.1 78.7,33.1 123.7,33.1 45,0 87.3,-12.1 123.7,-33.1 z"
   id="path16" />
</g>
<g
   id="guides"
   class="st6">
	<g
   id="circles"
   class="st7">
	</g>
	<g
   id="lines"
   class="st7">
	</g>
</g>
</svg>
