<?xml version="1.0" encoding="UTF-8" standalone="no"?>
<!-- Created with Inkscape (http://www.inkscape.org/) -->

<svg
   width="32"
   height="32"
   viewBox="0 0 8.4666665 8.4666666"
   version="1.1"
   id="svg501"
   inkscape:version="1.2.2 (b0a8486541, 2022-12-01)"
   sodipodi:docname="favicon.svg"
   xmlns:inkscape="http://www.inkscape.org/namespaces/inkscape"
   xmlns:sodipodi="http://sodipodi.sourceforge.net/DTD/sodipodi-0.dtd"
   xmlns="http://www.w3.org/2000/svg"
   xmlns:svg="http://www.w3.org/2000/svg">
  <sodipodi:namedview
     id="namedview503"
     pagecolor="#ffffff"
     bordercolor="#000000"
     borderopacity="0.25"
     inkscape:showpageshadow="2"
     inkscape:pageopacity="0.0"
     inkscape:pagecheckerboard="0"
     inkscape:deskcolor="#d1d1d1"
     inkscape:document-units="px"
     showgrid="false"
     inkscape:zoom="16.53125"
     inkscape:cx="21.565217"
     inkscape:cy="15.909263"
     inkscape:window-width="1366"
     inkscape:window-height="703"
     inkscape:window-x="0"
     inkscape:window-y="36"
     inkscape:window-maximized="1"
     inkscape:current-layer="layer1" />
  <defs
     id="defs498" />
  <g
     inkscape:label="Layer 1"
     inkscape:groupmode="layer"
     id="layer1">
    <g
       id="g686"
       transform="matrix(0.1363744,0,0,0.1363744,-4.2407075,-8.8696631)"
       style="stroke-width:7.33275">
      <g
         aria-label="Σ"
         id="text624"
         style="font-size:70.5556px;font-family:FreeSerif;-inkscape-font-specification:FreeSerif;fill:#ffff00;stroke:#ffffff;stroke-width:19.4012;stroke-linejoin:round;paint-order:fill markers stroke">
        <g
           id="path715"
           style="stroke-width:19.4012">
          <path
             style="color:#000000;-inkscape-font-specification:'DejaVu Sans Mono Bold Oblique';stroke:none;stroke-width:19.4012;stroke-linejoin:miter;-inkscape-stroke:none"
             d="M 61.505037,100.0659 50.963038,83.288274 52.685587,74.365471 H 88.72131 l -1.722549,8.957254 H 62.67637 L 73.252821,100.0659 56.130685,116.84353 h 24.32239 l -1.722549,8.95725 H 42.694803 l 1.722549,-8.95725 z"
             id="path726" />
          <path
             style="color:#000000;-inkscape-font-specification:'DejaVu Sans Mono Bold Oblique';fill:#ffffff;stroke:none;stroke-width:19.4012;stroke-linejoin:miter;-inkscape-stroke:none"
             d="m 52.685547,73.042969 a 1.3230472,1.3230472 0 0 0 -1.298828,1.072265 l -1.722657,8.921875 a 1.3230472,1.3230472 0 0 0 0.179688,0.955078 l 9.974609,15.875 -16.328125,16.033203 a 1.3230472,1.3230472 0 0 0 -0.371093,0.69336 l -1.722657,8.95703 a 1.3230472,1.3230472 0 0 0 1.298828,1.57227 h 36.035157 a 1.3230472,1.3230472 0 0 0 1.298828,-1.07227 l 1.722656,-8.95703 a 1.3230472,1.3230472 0 0 0 -1.298828,-1.57227 H 59.371094 l 14.80664,-14.50976 a 1.3230472,1.3230472 0 0 0 0.19336,-1.652345 L 65.076172,84.646484 h 21.921875 a 1.3230472,1.3230472 0 0 0 1.300781,-1.074218 l 1.720703,-8.957032 A 1.3230472,1.3230472 0 0 0 88.720703,73.042969 Z M 53.777344,75.6875 H 87.119141 L 85.90625,82 H 62.675781 a 1.3230472,1.3230472 0 0 0 -1.117187,2.029297 L 71.564453,99.869141 55.205078,115.89844 a 1.3230472,1.3230472 0 0 0 0.925781,2.26758 h 22.720703 l -1.21289,6.3125 H 44.296875 l 1.341797,-6.98047 16.792969,-16.48828 A 1.3230472,1.3230472 0 0 0 62.625,99.361328 L 52.361328,83.027344 Z"
             id="path728" />
        </g>
      </g>
      <g
         aria-label="Σ"
         id="text624-3"
         style="font-size:70.5556px;font-family:FreeSerif;-inkscape-font-specification:FreeSerif;stroke:#ffffff;stroke-width:19.4012;stroke-linejoin:round;paint-order:fill markers stroke">
        <g
           id="path718"
           style="stroke-width:19.4012">
          <path
             style="color:#000000;-inkscape-font-specification:'DejaVu Sans Mono Bold Oblique';fill:#000000;stroke:none;stroke-width:19.4012;stroke-linejoin:miter;-inkscape-stroke:none"
             d="M 58.279035,96.337438 47.737036,79.559812 49.459585,70.637009 h 36.035723 l -1.722549,8.957254 h -24.32239 l 10.57645,16.743175 -17.122136,16.777622 h 24.32239 l -1.722549,8.95726 H 39.468801 l 1.722549,-8.95726 z"
             id="path732" />
          <path
             style="color:#000000;-inkscape-font-specification:'DejaVu Sans Mono Bold Oblique';fill:#ffffff;stroke:none;stroke-width:19.4012;stroke-linejoin:miter;-inkscape-stroke:none"
             d="m 49.458984,69.314453 a 1.3230472,1.3230472 0 0 0 -1.298828,1.072266 L 46.4375,79.308594 a 1.3230472,1.3230472 0 0 0 0.179687,0.955078 l 9.97461,15.875 -16.328125,16.033208 a 1.3230472,1.3230472 0 0 0 -0.371094,0.69335 l -1.722656,8.95704 a 1.3230472,1.3230472 0 0 0 1.298828,1.57226 h 36.035156 a 1.3230472,1.3230472 0 0 0 1.298828,-1.07226 l 1.722657,-8.95704 a 1.3230472,1.3230472 0 0 0 -1.298829,-1.57226 H 56.144531 L 70.953125,97.283203 a 1.3230472,1.3230472 0 0 0 0.191406,-1.652344 l -9.294922,-14.71289 h 21.923828 a 1.3230472,1.3230472 0 0 0 1.298829,-1.074219 l 1.722656,-8.957031 a 1.3230472,1.3230472 0 0 0 -1.298828,-1.572266 z m 1.091797,2.644531 h 33.341797 l -1.212891,6.3125 H 59.451172 a 1.3230472,1.3230472 0 0 0 -1.119141,2.029297 l 10.00586,15.839844 -16.359375,16.029295 a 1.3230472,1.3230472 0 0 0 0.925781,2.26758 H 75.625 L 74.412109,120.75 H 41.070312 l 1.341797,-6.98047 16.792969,-16.48828 a 1.3230472,1.3230472 0 0 0 0.193359,-1.648438 L 49.134766,79.298828 Z"
             id="path734" />
        </g>
      </g>
      <g
         aria-label="Σ"
         id="text624-3-9"
         style="font-size:70.5556px;font-family:FreeSerif;-inkscape-font-specification:FreeSerif;fill:#0000ff;stroke:#ffffff;stroke-width:19.4012;stroke-linejoin:round;paint-order:fill markers stroke">
        <g
           id="path721"
           style="stroke-width:19.4012">
          <path
             style="color:#000000;-inkscape-font-specification:'DejaVu Sans Mono Bold Oblique';stroke:none;stroke-width:19.4012;stroke-linejoin:miter;-inkscape-stroke:none"
             d="m 55.109217,92.062239 -10.542,-16.777627 1.722549,-8.922803 H 82.325489 L 80.60294,75.319063 H 56.28055 L 66.857,92.062239 49.734864,108.83986 h 24.322391 l -1.722549,8.95726 H 36.298983 l 1.722548,-8.95726 z"
             id="path738" />
          <path
             style="color:#000000;-inkscape-font-specification:'DejaVu Sans Mono Bold Oblique';fill:#ffffff;stroke:none;stroke-width:19.4012;stroke-linejoin:miter;-inkscape-stroke:none"
             d="m 46.289062,65.039062 a 1.3230472,1.3230472 0 0 0 -1.298828,1.072266 l -1.722656,8.921875 a 1.3230472,1.3230472 0 0 0 0.179688,0.955078 L 53.421875,91.865234 37.09375,107.89648 a 1.3230472,1.3230472 0 0 0 -0.371094,0.69336 L 35,117.54688 a 1.3230472,1.3230472 0 0 0 1.298828,1.57226 h 36.035156 a 1.3230472,1.3230472 0 0 0 1.300782,-1.07226 l 1.720703,-8.95704 a 1.3230472,1.3230472 0 0 0 -1.298828,-1.57226 H 52.974609 L 67.783203,93.007812 a 1.3230472,1.3230472 0 0 0 0.191406,-1.652343 L 58.679687,76.642578 h 21.923829 a 1.3230472,1.3230472 0 0 0 1.298828,-1.074219 L 83.625,66.611328 a 1.3230472,1.3230472 0 0 0 -1.298828,-1.572266 z m 1.091797,2.646485 h 33.34375 l -1.214843,6.310547 H 56.28125 a 1.3230472,1.3230472 0 0 0 -1.119141,2.029297 l 10.00586,15.839843 -16.359375,16.029296 a 1.3230472,1.3230472 0 0 0 0.925781,2.26758 h 22.720703 l -1.212891,6.3125 H 37.900391 l 1.341796,-6.98047 16.792969,-16.488281 a 1.3230472,1.3230472 0 0 0 0.19336,-1.646484 L 45.964844,75.023437 Z"
             id="path740" />
        </g>
      </g>
    </g>
  </g>
</svg>
